<mxfile host="app.diagrams.net" modified="2021-10-17T11:01:39.317Z" agent="5.0 (Windows NT 10.0; Win64; x64) AppleWebKit/537.36 (KHTML, like Gecko) Chrome/94.0.4606.81 Safari/537.36" etag="FUSUZOsXBYktqno5Ylzq" version="15.5.4" type="github">
  <diagram id="Qx3oN8VtpppPwI66jTBj" name="Page-1">
    <mxGraphModel dx="1422" dy="882" grid="1" gridSize="10" guides="1" tooltips="1" connect="1" arrows="1" fold="1" page="1" pageScale="1" pageWidth="850" pageHeight="1100" math="0" shadow="0">
      <root>
        <mxCell id="0" />
        <mxCell id="1" parent="0" />
        <mxCell id="RHpM9mKlpsJk6qprtlWM-1" value="header" style="rounded=0;whiteSpace=wrap;html=1;fillColor=#f5f5f5;fontColor=#333333;strokeColor=#666666;" vertex="1" parent="1">
          <mxGeometry x="60" y="10" width="770" height="450" as="geometry" />
        </mxCell>
        <mxCell id="RHpM9mKlpsJk6qprtlWM-2" value="Grumpy Cats" style="rounded=1;whiteSpace=wrap;html=1;fillColor=#ffe6cc;strokeColor=#d79b00;" vertex="1" parent="1">
          <mxGeometry x="550" y="20" width="270" height="60" as="geometry" />
        </mxCell>
        <mxCell id="RHpM9mKlpsJk6qprtlWM-3" value="Nav - Media, about, shop, contact" style="rounded=1;whiteSpace=wrap;html=1;fillColor=#fff2cc;strokeColor=#d6b656;" vertex="1" parent="1">
          <mxGeometry x="560" y="80" width="240" height="60" as="geometry" />
        </mxCell>
        <mxCell id="RHpM9mKlpsJk6qprtlWM-4" value="Grumpy CAT" style="ellipse;whiteSpace=wrap;html=1;aspect=fixed;fillColor=#f8cecc;strokeColor=#b85450;" vertex="1" parent="1">
          <mxGeometry x="220" y="60" width="180" height="180" as="geometry" />
        </mxCell>
        <mxCell id="RHpM9mKlpsJk6qprtlWM-5" value="body / main" style="rounded=0;whiteSpace=wrap;html=1;fillColor=#dae8fc;strokeColor=#6c8ebf;" vertex="1" parent="1">
          <mxGeometry x="60" y="460" width="770" height="1740" as="geometry" />
        </mxCell>
        <mxCell id="RHpM9mKlpsJk6qprtlWM-6" value="img" style="whiteSpace=wrap;html=1;aspect=fixed;fillColor=#ffff88;strokeColor=#36393d;" vertex="1" parent="1">
          <mxGeometry x="390" y="390" width="230" height="230" as="geometry" />
        </mxCell>
        <mxCell id="RHpM9mKlpsJk6qprtlWM-7" value="img" style="whiteSpace=wrap;html=1;aspect=fixed;fillColor=#ffff88;strokeColor=#36393d;" vertex="1" parent="1">
          <mxGeometry x="190" y="670" width="150" height="150" as="geometry" />
        </mxCell>
        <mxCell id="RHpM9mKlpsJk6qprtlWM-8" value="img" style="whiteSpace=wrap;html=1;aspect=fixed;fillColor=#ffff88;strokeColor=#36393d;" vertex="1" parent="1">
          <mxGeometry x="440" y="650" width="210" height="210" as="geometry" />
        </mxCell>
        <mxCell id="RHpM9mKlpsJk6qprtlWM-9" value="img" style="whiteSpace=wrap;html=1;aspect=fixed;fillColor=#ffff88;strokeColor=#36393d;" vertex="1" parent="1">
          <mxGeometry x="470" y="910" width="260" height="260" as="geometry" />
        </mxCell>
        <mxCell id="RHpM9mKlpsJk6qprtlWM-10" value="img" style="whiteSpace=wrap;html=1;aspect=fixed;fillColor=#ffff88;strokeColor=#36393d;" vertex="1" parent="1">
          <mxGeometry x="220" y="890" width="190" height="190" as="geometry" />
        </mxCell>
        <mxCell id="RHpM9mKlpsJk6qprtlWM-11" value="img" style="whiteSpace=wrap;html=1;aspect=fixed;fillColor=#ffff88;strokeColor=#36393d;" vertex="1" parent="1">
          <mxGeometry x="170" y="1150" width="190" height="190" as="geometry" />
        </mxCell>
        <mxCell id="RHpM9mKlpsJk6qprtlWM-12" value="img" style="whiteSpace=wrap;html=1;aspect=fixed;fillColor=#ffff88;strokeColor=#36393d;" vertex="1" parent="1">
          <mxGeometry x="585" y="1220" width="190" height="190" as="geometry" />
        </mxCell>
        <mxCell id="RHpM9mKlpsJk6qprtlWM-13" value="img" style="whiteSpace=wrap;html=1;aspect=fixed;fillColor=#ffff88;strokeColor=#36393d;" vertex="1" parent="1">
          <mxGeometry x="235" y="1390" width="190" height="190" as="geometry" />
        </mxCell>
        <mxCell id="RHpM9mKlpsJk6qprtlWM-14" value="img" style="whiteSpace=wrap;html=1;aspect=fixed;fillColor=#ffff88;strokeColor=#36393d;" vertex="1" parent="1">
          <mxGeometry x="550" y="1520" width="190" height="190" as="geometry" />
        </mxCell>
        <mxCell id="RHpM9mKlpsJk6qprtlWM-15" value="img" style="whiteSpace=wrap;html=1;aspect=fixed;fillColor=#ffff88;strokeColor=#36393d;" vertex="1" parent="1">
          <mxGeometry x="270" y="1650" width="190" height="190" as="geometry" />
        </mxCell>
        <mxCell id="RHpM9mKlpsJk6qprtlWM-16" value="img" style="whiteSpace=wrap;html=1;aspect=fixed;fillColor=#ffff88;strokeColor=#36393d;" vertex="1" parent="1">
          <mxGeometry x="530" y="1860" width="190" height="190" as="geometry" />
        </mxCell>
        <mxCell id="RHpM9mKlpsJk6qprtlWM-17" value="footer" style="rounded=0;whiteSpace=wrap;html=1;fillColor=#d5e8d4;strokeColor=#82b366;" vertex="1" parent="1">
          <mxGeometry x="60" y="2420" width="770" height="270" as="geometry" />
        </mxCell>
        <mxCell id="RHpM9mKlpsJk6qprtlWM-18" value="shop slide bar" style="rounded=0;whiteSpace=wrap;html=1;fillColor=#e1d5e7;strokeColor=#9673a6;" vertex="1" parent="1">
          <mxGeometry x="60" y="2200" width="770" height="220" as="geometry" />
        </mxCell>
        <mxCell id="RHpM9mKlpsJk6qprtlWM-19" value="repeat nav bar" style="rounded=0;whiteSpace=wrap;html=1;fillColor=#fff2cc;strokeColor=#d6b656;" vertex="1" parent="1">
          <mxGeometry x="190" y="2590" width="520" height="60" as="geometry" />
        </mxCell>
        <mxCell id="RHpM9mKlpsJk6qprtlWM-20" value="" style="shape=flexArrow;endArrow=classic;html=1;rounded=0;endWidth=25;endSize=5.56;" edge="1" parent="1">
          <mxGeometry width="50" height="50" relative="1" as="geometry">
            <mxPoint x="240" y="2510" as="sourcePoint" />
            <mxPoint x="140" y="2510" as="targetPoint" />
            <Array as="points">
              <mxPoint x="240" y="2510" />
            </Array>
          </mxGeometry>
        </mxCell>
        <mxCell id="RHpM9mKlpsJk6qprtlWM-21" value="" style="shape=flexArrow;endArrow=classic;html=1;rounded=0;endWidth=25;endSize=5.56;" edge="1" parent="1">
          <mxGeometry width="50" height="50" relative="1" as="geometry">
            <mxPoint x="710" y="2520" as="sourcePoint" />
            <mxPoint x="830" y="2510" as="targetPoint" />
            <Array as="points">
              <mxPoint x="710" y="2520" />
              <mxPoint x="660" y="2520" />
              <mxPoint x="690" y="2520" />
              <mxPoint x="710" y="2510" />
              <mxPoint x="730" y="2510" />
            </Array>
          </mxGeometry>
        </mxCell>
      </root>
    </mxGraphModel>
  </diagram>
</mxfile>
